<?xml version="1.0" encoding="utf-8"?>
<!-- Generator: Adobe Illustrator 20.0.0, SVG Export Plug-In . SVG Version: 6.00 Build 0)  -->
<svg version="1.1" id="Layer_1" xmlns="http://www.w3.org/2000/svg" xmlns:xlink="http://www.w3.org/1999/xlink" x="0px" y="0px"
	 viewBox="0 0 287.2 36" style="enable-background:new 0 0 287.2 36;" xml:space="preserve">
<style type="text/css">
	.st0{fill:#312E2F;}
	.st1{fill:#B51E85;}
	.st2{fill:#762B8A;}
</style>
<title>Asset 1</title>
<g id="Layer_2">
	<g id="Layer_1-2">
		<polygon class="st0" points="42.4,9 57.3,9 57.3,12.5 46.7,12.5 46.7,16.2 56,16.2 56,19.7 46.7,19.7 46.7,23.5 57.4,23.5 
			57.4,27 42.4,27 		"/>
		<path class="st0" d="M60.9,13.2h4.3v2c1-1.4,2.7-2.2,4.4-2.2c3.2,0,5.1,2,5.1,5.1V27h-4.3v-7.7c0-1.9-1-2.8-2.6-2.8
			c-1.4-0.1-2.6,0.9-2.7,2.3c0,0.2,0,0.3,0,0.5V27h-4.3V13.2z"/>
		<path class="st0" d="M79.1,23.1v-6.5h-1.8v-3.3h1.8V9.7h4.3v3.5h3.6v3.3h-3.6v5.9c0,0.9,0.4,1.3,1.4,1.3c0.7,0,1.5-0.2,2.1-0.5
			v3.1c-1,0.6-2.2,0.8-3.4,0.8C80.8,27.2,79.1,26.2,79.1,23.1"/>
		<path class="st0" d="M90.2,13.2h4.3V16c0.7-2,2.7-3.2,4.8-3v4h-0.2c-2.8,0-4.6,1.6-4.6,4.9V27h-4.3V13.2z"/>
		<path class="st0" d="M101.6,22.1v-8.9h4.3v7.7c0,1.9,1,2.8,2.6,2.8c1.4,0.1,2.6-0.9,2.7-2.3c0-0.2,0-0.4,0-0.5v-7.7h4.3V27h-4.3
			v-2c-1,1.4-2.7,2.2-4.4,2.2C103.5,27.2,101.6,25.2,101.6,22.1"/>
		<path class="st0" d="M118.1,25.1l1.8-2.6c1.4,1,3.1,1.6,4.8,1.6c1.2,0,1.8-0.4,1.8-1v0c0-0.9-1.5-1.1-3.1-1.6
			c-2.1-0.6-4.5-1.5-4.5-4.1v0c0-2.8,2.5-4.4,5.5-4.4c2,0,3.9,0.6,5.6,1.6l-1.6,2.7c-1.2-0.7-2.6-1.2-4.1-1.3c-1,0-1.6,0.4-1.6,1
			l0,0c0,0.8,1.4,1.1,3.1,1.6c2.1,0.6,4.6,1.6,4.6,4.1v0c0,3.1-2.5,4.4-5.8,4.4C122.3,27.2,120,26.5,118.1,25.1"/>
		<path class="st0" d="M134,23.1v-6.5h-1.8v-3.3h1.8V9.7h4.3v3.5h3.6v3.3h-3.6v5.9c0,0.9,0.4,1.3,1.4,1.3c0.7,0,1.5-0.2,2.1-0.5v3.1
			c-1,0.6-2.2,0.8-3.4,0.8C135.8,27.2,134,26.2,134,23.1"/>
		<path class="st0" d="M153.9,9h7.7c6.2,0,10.5,3.9,10.5,8.9V18c0,5.1-4.3,9-10.5,9h-7.7V9z M158.2,12.6v10.8h3.4
			c3.6,0,5.9-2.2,5.9-5.4v0c0-3.2-2.4-5.4-5.9-5.4L158.2,12.6z"/>
		<path class="st0" d="M174.3,23L174.3,23c0-3,2.5-4.4,6.1-4.4c1.3,0,2.5,0.2,3.7,0.6V19c0-1.6-1.1-2.5-3.2-2.5
			c-1.4,0-2.8,0.3-4.2,0.8l-1.1-3c1.9-0.8,3.9-1.2,5.9-1.1c1.8-0.1,3.7,0.4,5.1,1.5c1.1,1.2,1.7,2.8,1.6,4.4v8h-4.1v-1.5
			c-1.2,1.2-2.9,1.8-4.6,1.8C176.7,27.2,174.3,25.8,174.3,23 M184.2,22.1v-0.7c-0.9-0.3-1.8-0.5-2.7-0.5c-1.8,0-3,0.7-3,1.9v0
			c0,1,1,1.7,2.3,1.7C182.8,24.5,184.1,23.5,184.2,22.1"/>
		<path class="st0" d="M192.4,23.1v-6.5h-1.8v-3.3h1.8V9.7h4.3v3.5h3.6v3.3h-3.6v5.9c0,0.9,0.4,1.3,1.4,1.3c0.7,0,1.5-0.2,2.1-0.5
			v3.1c-1,0.6-2.2,0.8-3.4,0.8C194.2,27.2,192.4,26.2,192.4,23.1"/>
		<path class="st0" d="M202.4,23L202.4,23c0-3,2.5-4.4,6.1-4.4c1.3,0,2.5,0.2,3.7,0.6V19c0-1.6-1.1-2.5-3.2-2.5
			c-1.4,0-2.8,0.3-4.2,0.8l-1.1-3c1.9-0.8,3.9-1.2,5.9-1.1c1.8-0.1,3.7,0.4,5.1,1.5c1.1,1.2,1.7,2.8,1.6,4.4v8h-4.1v-1.5
			c-1.2,1.2-2.9,1.8-4.6,1.8C204.8,27.2,202.5,25.8,202.4,23 M212.3,22.1v-0.7c-0.9-0.3-1.8-0.5-2.7-0.5c-1.8,0-3,0.7-3,1.9v0
			c0,1,1,1.7,2.3,1.7C210.9,24.5,212.3,23.5,212.3,22.1"/>
		<path class="st0" d="M219.2,20.2L219.2,20.2c0-4,3.3-7.2,7.9-7.2c2.2-0.1,4.4,0.7,6,2.3l-2.6,2.6c-0.9-1-2.1-1.5-3.4-1.5
			c-2,0-3.7,1.6-3.7,3.7c0,0,0,0.1,0,0.1v0c-0.1,2,1.5,3.7,3.6,3.8c0.1,0,0.2,0,0.3,0c1.3,0,2.5-0.5,3.5-1.5l2.5,2.3
			c-1.6,1.7-3.8,2.6-6.2,2.5C222.5,27.3,219.2,24.1,219.2,20.2"/>
		<path class="st0" d="M235,23L235,23c0-3,2.5-4.4,6.1-4.4c1.3,0,2.5,0.2,3.7,0.6V19c0-1.6-1.1-2.5-3.2-2.5c-1.4,0-2.8,0.3-4.2,0.8
			l-1.1-3c1.9-0.8,3.9-1.2,5.9-1.1c1.8-0.1,3.7,0.4,5.1,1.5c1.2,1.2,1.8,2.8,1.7,4.4v8h-4.1v-1.5c-1.2,1.2-2.9,1.8-4.6,1.8
			C237.4,27.2,235.1,25.8,235,23 M244.9,22.1v-0.7c-0.9-0.3-1.8-0.5-2.7-0.5c-1.8,0-3,0.7-3,1.9v0c0,1,1,1.7,2.3,1.7
			C243.5,24.5,244.9,23.5,244.9,22.1"/>
		<path class="st0" d="M252.7,13.2h4.3V16c0.7-2,2.7-3.2,4.8-3v4h-0.2c-2.9,0-4.6,1.6-4.6,4.9V27h-4.3L252.7,13.2z"/>
		<path class="st0" d="M263.6,20.1L263.6,20.1c-0.2-3.8,2.7-6.9,6.4-7.1c0.2,0,0.3,0,0.5,0c1.8-0.1,3.5,0.7,4.7,2.1V8.2h4.3V27h-4.3
			v-2c-1.1,1.5-2.9,2.3-4.7,2.2c-3.7,0.1-6.8-2.9-6.9-6.6C263.6,20.5,263.6,20.3,263.6,20.1 M275.2,20.1L275.2,20.1
			c0.1-2.1-1.5-3.8-3.5-3.9c-2-0.1-3.8,1.5-3.9,3.5c0,0.1,0,0.3,0,0.4v0c-0.1,2,1.5,3.8,3.5,3.9c2,0.1,3.8-1.5,3.9-3.5
			C275.2,20.4,275.2,20.2,275.2,20.1"/>
		<path class="st0" d="M282.8,8.7H282V8.2h2.1v0.5h-0.8v1.8h-0.6L282.8,8.7z M284.7,8.2h0.6l0.7,1l0.7-1h0.6v2.3h-0.5V9l-0.7,1l0,0
			l-0.7-1v1.6h-0.5L284.7,8.2z"/>
		<path class="st1" d="M15.6,13.5l3.9,2.2v4.4l-3.9,2.2l-3.9-2.2v-4.4L15.6,13.5z M15.6,9l-7.7,4.5v9l7.7,4.5l7.8-4.5v-9L15.6,9z"/>
		<path class="st2" d="M15.6,4.5l11.7,6.7v13.5l-11.7,6.7L3.9,24.7V11.2L15.6,4.5z M15.6,0L0,9v18l15.6,9l15.6-9V9L15.6,0z"/>
	</g>
</g>
</svg>
